<?xml version="1.0" encoding="UTF-8"?>
<svg width="25px" height="22px" viewBox="0 0 25 22" version="1.1" xmlns="http://www.w3.org/2000/svg" xmlns:xlink="http://www.w3.org/1999/xlink">
    <!-- Generator: Sketch 61.2 (89653) - https://sketch.com -->
    <title>Fill 6</title>
    <desc>Created with Sketch.</desc>
    <g id="Symbols" stroke="none" stroke-width="1" fill="none" fill-rule="evenodd">
        <g id="Icons/.like" fill="#010202">
            <path d="M17.8448,2.7246 C18.9818,2.7246 20.0478,3.1666 20.8518,3.9696 C21.6528,4.7706 22.0928,5.8386 22.0928,6.9756 C22.0928,8.1146 21.6528,9.1816 20.8518,9.9826 C19.4928,11.3406 18.2298,12.4536 17.0058,13.5326 C15.4558,14.8976 13.9798,16.2016 12.4318,17.8706 C10.8858,16.2016 9.4078,14.8976 7.8578,13.5326 C6.6338,12.4536 5.3698,11.3396 4.0128,9.9826 C3.2118,9.1816 2.7708,8.1146 2.7708,6.9756 C2.7708,5.8386 3.2118,4.7706 4.0128,3.9696 C4.8158,3.1666 5.8828,2.7246 7.0198,2.7246 C10.8498,2.7246 12.4348,7.2466 12.4348,7.2466 C12.4348,7.2466 14.0188,2.7246 17.8448,2.7246 M17.8448,0.0896 C14.5918,0.0896 12.9528,2.0676 12.4348,2.8456 C11.9138,2.0676 10.2728,0.0896 7.0198,0.0896 C5.1788,0.0896 3.4498,0.8056 2.1498,2.1066 C0.8518,3.4066 0.1348,5.1346 0.1348,6.9756 C0.1348,8.8186 0.8518,10.5466 2.1498,11.8456 C3.5648,13.2606 4.8618,14.4046 6.1158,15.5086 C7.8828,17.0676 9.5518,18.5376 11.3028,20.5576 C11.5038,20.7886 12.2608,21.7646 12.2688,21.7746 L12.4318,21.9876 L12.5958,21.7746 C12.6038,21.7646 13.3608,20.7886 13.5618,20.5576 C15.3128,18.5376 16.9818,17.0676 18.7488,15.5086 C20.0028,14.4046 21.2998,13.2606 22.7138,11.8456 C24.0128,10.5466 24.7288,8.8186 24.7288,6.9756 C24.7288,5.1346 24.0128,3.4066 22.7138,2.1066 C21.4138,0.8056 19.6858,0.0896 17.8448,0.0896" id="Fill-6"></path>
        </g>
    </g>
</svg>